{
	"asset":{
		"generator":"Khronos glTF Blender I/O v3.6.27",
		"version":"2.0"
	},
	"extensionsUsed":[
		"KHR_materials_specular",
		"KHR_materials_ior"
	],
	"scene":0,
	"scenes":[
		{
			"name":"Scene",
			"nodes":[
				0
			]
		}
	],
	"nodes":[
		{
			"mesh":0,
			"name":"pen:tap",
			"rotation":[
				0,
				0,
				0.7087417244911194,
				0.7054680585861206
			],
			"translation":[
				0.002569727599620819,
				0.5270524621009827,
				-0.02282351814210415
			]
		}
	],
	"materials":[
		{
			"doubleSided":true,
			"extensions":{
				"KHR_materials_specular":{
					"specularColorFactor":[
						2.371357614441398,
						2.371357614441398,
						2.371357614441398
					]
				},
				"KHR_materials_ior":{
					"ior":1.4500000476837158
				}
			},
			"name":"blinn4",
			"pbrMetallicRoughness":{
				"baseColorFactor":[
					0.341085284948349,
					0.341085284948349,
					0.341085284948349,
					1
				],
				"metallicFactor":0.5,
				"roughnessFactor":0.8359062671661377
			}
		},
		{
			"doubleSided":true,
			"extensions":{
				"KHR_materials_specular":{
					"specularColorFactor":[
						2.371357614441398,
						2.371357614441398,
						2.371357614441398
					]
				},
				"KHR_materials_ior":{
					"ior":1.4500000476837158
				}
			},
			"name":"blinn3",
			"pbrMetallicRoughness":{
				"baseColorFactor":[
					0,
					0,
					0.5699999928474426,
					1
				],
				"metallicFactor":0.5,
				"roughnessFactor":0.7905416488647461
			}
		}
	],
	"meshes":[
		{
			"name":"Mesh.001",
			"primitives":[
				{
					"attributes":{
						"POSITION":0,
						"NORMAL":1,
						"TEXCOORD_0":2,
						"TEXCOORD_1":3,
						"TEXCOORD_2":4
					},
					"indices":5,
					"material":0
				},
				{
					"attributes":{
						"POSITION":6,
						"NORMAL":7,
						"TEXCOORD_0":8,
						"TEXCOORD_1":9,
						"TEXCOORD_2":10
					},
					"indices":11,
					"material":1
				}
			]
		}
	],
	"accessors":[
		{
			"bufferView":0,
			"componentType":5126,
			"count":502,
			"max":[
				0.27522844076156616,
				0.07168920338153839,
				0.08748404681682587
			],
			"min":[
				-0.25299543142318726,
				-0.07061560451984406,
				-0.07660181820392609
			],
			"type":"VEC3"
		},
		{
			"bufferView":1,
			"componentType":5126,
			"count":502,
			"type":"VEC3"
		},
		{
			"bufferView":2,
			"componentType":5126,
			"count":502,
			"type":"VEC2"
		},
		{
			"bufferView":3,
			"componentType":5126,
			"count":502,
			"type":"VEC2"
		},
		{
			"bufferView":4,
			"componentType":5126,
			"count":502,
			"type":"VEC2"
		},
		{
			"bufferView":5,
			"componentType":5123,
			"count":1644,
			"type":"SCALAR"
		},
		{
			"bufferView":6,
			"componentType":5126,
			"count":382,
			"max":[
				0.28290098905563354,
				0.06700403988361359,
				0.08212296664714813
			],
			"min":[
				-0.2870602011680603,
				-0.06486372649669647,
				-0.048528507351875305
			],
			"type":"VEC3"
		},
		{
			"bufferView":7,
			"componentType":5126,
			"count":382,
			"type":"VEC3"
		},
		{
			"bufferView":8,
			"componentType":5126,
			"count":382,
			"type":"VEC2"
		},
		{
			"bufferView":9,
			"componentType":5126,
			"count":382,
			"type":"VEC2"
		},
		{
			"bufferView":10,
			"componentType":5126,
			"count":382,
			"type":"VEC2"
		},
		{
			"bufferView":11,
			"componentType":5123,
			"count":1059,
			"type":"SCALAR"
		}
	],
	"bufferViews":[
		{
			"buffer":0,
			"byteLength":6024,
			"byteOffset":0,
			"target":34962
		},
		{
			"buffer":0,
			"byteLength":6024,
			"byteOffset":6024,
			"target":34962
		},
		{
			"buffer":0,
			"byteLength":4016,
			"byteOffset":12048,
			"target":34962
		},
		{
			"buffer":0,
			"byteLength":4016,
			"byteOffset":16064,
			"target":34962
		},
		{
			"buffer":0,
			"byteLength":4016,
			"byteOffset":20080,
			"target":34962
		},
		{
			"buffer":0,
			"byteLength":3288,
			"byteOffset":24096,
			"target":34963
		},
		{
			"buffer":0,
			"byteLength":4584,
			"byteOffset":27384,
			"target":34962
		},
		{
			"buffer":0,
			"byteLength":4584,
			"byteOffset":31968,
			"target":34962
		},
		{
			"buffer":0,
			"byteLength":3056,
			"byteOffset":36552,
			"target":34962
		},
		{
			"buffer":0,
			"byteLength":3056,
			"byteOffset":39608,
			"target":34962
		},
		{
			"buffer":0,
			"byteLength":3056,
			"byteOffset":42664,
			"target":34962
		},
		{
			"buffer":0,
			"byteLength":2118,
			"byteOffset":45720,
			"target":34963
		}
	],
	"buffers":[
		{
			"byteLength":47840,
			"uri":"pen_head.bin"
		}
	]
}
