{
	"asset":{
		"generator":"Khronos glTF Blender I/O v3.6.27",
		"version":"2.0"
	},
	"extensionsUsed":[
		"KHR_materials_specular",
		"KHR_materials_ior"
	],
	"scene":0,
	"scenes":[
		{
			"name":"Scene",
			"nodes":[
				0
			]
		}
	],
	"nodes":[
		{
			"mesh":0,
			"name":"pen:pen1",
			"rotation":[
				0,
				0,
				0.7087417244911194,
				0.7054680585861206
			],
			"translation":[
				0.00634167343378067,
				-0.20992974936962128,
				0
			]
		}
	],
	"materials":[
		{
			"doubleSided":true,
			"extensions":{
				"KHR_materials_specular":{
					"specularColorFactor":[
						2.371357614441398,
						2.371357614441398,
						2.371357614441398
					]
				},
				"KHR_materials_ior":{
					"ior":1.4500000476837158
				}
			},
			"name":"blinn3",
			"pbrMetallicRoughness":{
				"baseColorFactor":[
					0,
					0,
					0.5699999928474426,
					1
				],
				"metallicFactor":0.5,
				"roughnessFactor":0.7905416488647461
			}
		},
		{
			"doubleSided":true,
			"extensions":{
				"KHR_materials_specular":{
					"specularColorFactor":[
						2.371357614441398,
						2.371357614441398,
						2.371357614441398
					]
				},
				"KHR_materials_ior":{
					"ior":1.4500000476837158
				}
			},
			"name":"blinn4",
			"pbrMetallicRoughness":{
				"baseColorFactor":[
					0.341085284948349,
					0.341085284948349,
					0.341085284948349,
					1
				],
				"metallicFactor":0.5,
				"roughnessFactor":0.8359062671661377
			}
		}
	],
	"meshes":[
		{
			"name":"Mesh",
			"primitives":[
				{
					"attributes":{
						"POSITION":0,
						"NORMAL":1,
						"TEXCOORD_0":2,
						"TEXCOORD_1":3,
						"TEXCOORD_2":4
					},
					"indices":5,
					"material":0
				},
				{
					"attributes":{
						"POSITION":6,
						"NORMAL":7,
						"TEXCOORD_0":8,
						"TEXCOORD_1":9,
						"TEXCOORD_2":10
					},
					"indices":11,
					"material":1
				}
			]
		}
	],
	"accessors":[
		{
			"bufferView":0,
			"componentType":5126,
			"count":687,
			"max":[
				0.9359372854232788,
				0.05779532715678215,
				0.0621945783495903
			],
			"min":[
				-0.5774654150009155,
				-0.06211789324879646,
				-0.061059243977069855
			],
			"type":"VEC3"
		},
		{
			"bufferView":1,
			"componentType":5126,
			"count":687,
			"type":"VEC3"
		},
		{
			"bufferView":2,
			"componentType":5126,
			"count":687,
			"type":"VEC2"
		},
		{
			"bufferView":3,
			"componentType":5126,
			"count":687,
			"type":"VEC2"
		},
		{
			"bufferView":4,
			"componentType":5126,
			"count":687,
			"type":"VEC2"
		},
		{
			"bufferView":5,
			"componentType":5123,
			"count":2427,
			"type":"SCALAR"
		},
		{
			"bufferView":6,
			"componentType":5126,
			"count":212,
			"max":[
				0.9752238988876343,
				0.054506342858076096,
				0.059399835765361786
			],
			"min":[
				-0.5634654760360718,
				-0.05875571444630623,
				-0.055297620594501495
			],
			"type":"VEC3"
		},
		{
			"bufferView":7,
			"componentType":5126,
			"count":212,
			"type":"VEC3"
		},
		{
			"bufferView":8,
			"componentType":5126,
			"count":212,
			"type":"VEC2"
		},
		{
			"bufferView":9,
			"componentType":5126,
			"count":212,
			"type":"VEC2"
		},
		{
			"bufferView":10,
			"componentType":5126,
			"count":212,
			"type":"VEC2"
		},
		{
			"bufferView":11,
			"componentType":5123,
			"count":648,
			"type":"SCALAR"
		}
	],
	"bufferViews":[
		{
			"buffer":0,
			"byteLength":8244,
			"byteOffset":0,
			"target":34962
		},
		{
			"buffer":0,
			"byteLength":8244,
			"byteOffset":8244,
			"target":34962
		},
		{
			"buffer":0,
			"byteLength":5496,
			"byteOffset":16488,
			"target":34962
		},
		{
			"buffer":0,
			"byteLength":5496,
			"byteOffset":21984,
			"target":34962
		},
		{
			"buffer":0,
			"byteLength":5496,
			"byteOffset":27480,
			"target":34962
		},
		{
			"buffer":0,
			"byteLength":4854,
			"byteOffset":32976,
			"target":34963
		},
		{
			"buffer":0,
			"byteLength":2544,
			"byteOffset":37832,
			"target":34962
		},
		{
			"buffer":0,
			"byteLength":2544,
			"byteOffset":40376,
			"target":34962
		},
		{
			"buffer":0,
			"byteLength":1696,
			"byteOffset":42920,
			"target":34962
		},
		{
			"buffer":0,
			"byteLength":1696,
			"byteOffset":44616,
			"target":34962
		},
		{
			"buffer":0,
			"byteLength":1696,
			"byteOffset":46312,
			"target":34962
		},
		{
			"buffer":0,
			"byteLength":1296,
			"byteOffset":48008,
			"target":34963
		}
	],
	"buffers":[
		{
			"byteLength":49304,
			"uri":"pen_body.bin"
		}
	]
}
